<svg width="137" height="137" viewBox="0 0 137 137" fill="none" xmlns="http://www.w3.org/2000/svg">
<path d="M25.6875 8.5625C20.9653 8.5625 17.125 12.4028 17.125 17.125V117.734V119.875C17.125 124.597 20.9653 128.438 25.6875 128.438H104.891C108.431 128.438 111.312 125.556 111.312 122.016V115.201C113.798 114.315 115.594 111.959 115.594 109.172V14.9844C115.594 11.4438 112.712 8.5625 109.172 8.5625H25.6875ZM25.6875 12.8438H109.172C110.354 12.8438 111.312 13.8049 111.312 14.9844V109.172C111.312 110.351 110.354 111.312 109.172 111.312H42.8125V36.3906C42.8125 35.209 41.8556 34.25 40.6719 34.25C39.4881 34.25 38.5312 35.209 38.5312 36.3906V111.312H25.6875C24.3667 111.312 22.8191 111.789 21.4062 112.667V17.125C21.4062 14.7639 23.3264 12.8438 25.6875 12.8438ZM27.8281 17.125C26.6444 17.125 25.6875 18.084 25.6875 19.2656C25.6875 20.4473 26.6444 21.4062 27.8281 21.4062H32.1094C33.2931 21.4062 34.25 20.4473 34.25 19.2656C34.25 18.084 33.2931 17.125 32.1094 17.125H27.8281ZM40.6719 17.125C39.4881 17.125 38.5312 18.084 38.5312 19.2656V27.8281C38.5312 29.0098 39.4881 29.9688 40.6719 29.9688C41.8556 29.9688 42.8125 29.0098 42.8125 27.8281V19.2656C42.8125 18.084 41.8556 17.125 40.6719 17.125ZM27.8281 27.8281C26.6444 27.8281 25.6875 28.7871 25.6875 29.9688C25.6875 31.1504 26.6444 32.1094 27.8281 32.1094H32.1094C33.2931 32.1094 34.25 31.1504 34.25 29.9688C34.25 28.7871 33.2931 27.8281 32.1094 27.8281H27.8281ZM27.8281 38.5312C26.6444 38.5312 25.6875 39.4902 25.6875 40.6719C25.6875 41.8535 26.6444 42.8125 27.8281 42.8125H32.1094C33.2931 42.8125 34.25 41.8535 34.25 40.6719C34.25 39.4902 33.2931 38.5312 32.1094 38.5312H27.8281ZM62.9101 42.7456C61.9939 42.7456 61.1735 43.3314 60.8824 44.2047L49.3264 78.4547C48.9475 79.5722 49.5467 80.7893 50.6684 81.1682C50.8932 81.2452 51.1251 81.281 51.3499 81.281C52.2426 81.281 53.078 80.7167 53.3777 79.8219L57.245 68.3704C57.352 68.3875 57.4473 68.4373 57.5586 68.4373H68.2617C68.373 68.4373 68.4682 68.3875 68.5753 68.3704L72.4426 79.8219C72.8193 80.9415 74.0301 81.5513 75.1518 81.1682C76.2714 80.7893 76.877 79.5743 76.4981 78.4547L64.9379 44.2047C64.6446 43.3335 63.8263 42.7456 62.9101 42.7456ZM27.8281 49.2344C26.6444 49.2344 25.6875 50.1934 25.6875 51.375C25.6875 52.5566 26.6444 53.5156 27.8281 53.5156H32.1094C33.2931 53.5156 34.25 52.5566 34.25 51.375C34.25 50.1934 33.2931 49.2344 32.1094 49.2344H27.8281ZM62.9101 51.584L67.1496 64.156H58.6665L62.9101 51.584ZM87.7656 55.6562C83.0434 55.6562 79.2031 59.4965 79.2031 64.2188V72.7812C79.2031 77.5035 83.0434 81.3438 87.7656 81.3438H89.9062C92.475 81.3438 94.7569 80.1818 96.3281 78.3837C97.8993 80.1818 100.181 81.3438 102.75 81.3438C103.934 81.3438 104.891 80.3869 104.891 79.2031C104.891 78.0194 103.934 77.0625 102.75 77.0625C100.389 77.0625 98.4688 75.1424 98.4688 72.7812V64.2188V57.9892C98.4688 56.8054 97.5119 55.8486 96.3281 55.8486C95.5104 55.8486 94.8231 56.324 94.4634 56.9983C93.1405 56.1613 91.5845 55.6562 89.9062 55.6562H87.7656ZM27.8281 59.9375C26.6444 59.9375 25.6875 60.8965 25.6875 62.0781C25.6875 63.2598 26.6444 64.2188 27.8281 64.2188H32.1094C33.2931 64.2188 34.25 63.2598 34.25 62.0781C34.25 60.8965 33.2931 59.9375 32.1094 59.9375H27.8281ZM87.7656 59.9375H89.9062C92.2674 59.9375 94.1875 61.8576 94.1875 64.2188V72.7812C94.1875 75.1424 92.2674 77.0625 89.9062 77.0625H87.7656C85.4045 77.0625 83.4844 75.1424 83.4844 72.7812V64.2188C83.4844 61.8576 85.4045 59.9375 87.7656 59.9375ZM27.8281 70.6406C26.6444 70.6406 25.6875 71.5996 25.6875 72.7812C25.6875 73.9629 26.6444 74.9219 27.8281 74.9219H32.1094C33.2931 74.9219 34.25 73.9629 34.25 72.7812C34.25 71.5996 33.2931 70.6406 32.1094 70.6406H27.8281ZM27.8281 81.3438C26.6444 81.3438 25.6875 82.3027 25.6875 83.4844C25.6875 84.666 26.6444 85.625 27.8281 85.625H32.1094C33.2931 85.625 34.25 84.666 34.25 83.4844C34.25 82.3027 33.2931 81.3438 32.1094 81.3438H27.8281ZM27.8281 92.0469C26.6444 92.0469 25.6875 93.0059 25.6875 94.1875C25.6875 95.3691 26.6444 96.3281 27.8281 96.3281H32.1094C33.2931 96.3281 34.25 95.3691 34.25 94.1875C34.25 93.0059 33.2931 92.0469 32.1094 92.0469H27.8281ZM27.8281 102.75C26.6444 102.75 25.6875 103.709 25.6875 104.891C25.6875 106.072 26.6444 107.031 27.8281 107.031H32.1094C33.2931 107.031 34.25 106.072 34.25 104.891C34.25 103.709 33.2931 102.75 32.1094 102.75H27.8281ZM25.6875 115.594H107.031V122.016C107.031 123.195 106.072 124.156 104.891 124.156H25.6875C23.3264 124.156 21.4062 122.236 21.4062 119.875C21.4062 117.21 24.3796 115.594 25.6875 115.594Z" fill="#707EFF"/>
<path d="M25.6875 8.5625C20.9653 8.5625 17.125 12.4028 17.125 17.125V117.734V119.875C17.125 124.597 20.9653 128.438 25.6875 128.438H104.891C108.431 128.438 111.312 125.556 111.312 122.016V115.201C113.798 114.315 115.594 111.959 115.594 109.172V14.9844C115.594 11.4438 112.712 8.5625 109.172 8.5625H25.6875ZM25.6875 12.8438H109.172C110.354 12.8438 111.312 13.8049 111.312 14.9844V109.172C111.312 110.351 110.354 111.312 109.172 111.312H42.8125V36.3906C42.8125 35.209 41.8556 34.25 40.6719 34.25C39.4881 34.25 38.5312 35.209 38.5312 36.3906V111.312H25.6875C24.3667 111.312 22.8191 111.789 21.4062 112.667V17.125C21.4062 14.7639 23.3264 12.8438 25.6875 12.8438ZM27.8281 17.125C26.6444 17.125 25.6875 18.084 25.6875 19.2656C25.6875 20.4473 26.6444 21.4062 27.8281 21.4062H32.1094C33.2931 21.4062 34.25 20.4473 34.25 19.2656C34.25 18.084 33.2931 17.125 32.1094 17.125H27.8281ZM40.6719 17.125C39.4881 17.125 38.5312 18.084 38.5312 19.2656V27.8281C38.5312 29.0098 39.4881 29.9688 40.6719 29.9688C41.8556 29.9688 42.8125 29.0098 42.8125 27.8281V19.2656C42.8125 18.084 41.8556 17.125 40.6719 17.125ZM27.8281 27.8281C26.6444 27.8281 25.6875 28.7871 25.6875 29.9688C25.6875 31.1504 26.6444 32.1094 27.8281 32.1094H32.1094C33.2931 32.1094 34.25 31.1504 34.25 29.9688C34.25 28.7871 33.2931 27.8281 32.1094 27.8281H27.8281ZM27.8281 38.5312C26.6444 38.5312 25.6875 39.4902 25.6875 40.6719C25.6875 41.8535 26.6444 42.8125 27.8281 42.8125H32.1094C33.2931 42.8125 34.25 41.8535 34.25 40.6719C34.25 39.4902 33.2931 38.5312 32.1094 38.5312H27.8281ZM62.9101 42.7456C61.9939 42.7456 61.1735 43.3314 60.8824 44.2047L49.3264 78.4547C48.9475 79.5722 49.5467 80.7893 50.6684 81.1682C50.8932 81.2452 51.1251 81.281 51.3499 81.281C52.2426 81.281 53.078 80.7167 53.3777 79.8219L57.245 68.3704C57.352 68.3875 57.4473 68.4373 57.5586 68.4373H68.2617C68.373 68.4373 68.4682 68.3875 68.5753 68.3704L72.4426 79.8219C72.8193 80.9415 74.0301 81.5513 75.1518 81.1682C76.2714 80.7893 76.877 79.5743 76.4981 78.4547L64.9379 44.2047C64.6446 43.3335 63.8263 42.7456 62.9101 42.7456ZM27.8281 49.2344C26.6444 49.2344 25.6875 50.1934 25.6875 51.375C25.6875 52.5566 26.6444 53.5156 27.8281 53.5156H32.1094C33.2931 53.5156 34.25 52.5566 34.25 51.375C34.25 50.1934 33.2931 49.2344 32.1094 49.2344H27.8281ZM62.9101 51.584L67.1496 64.156H58.6665L62.9101 51.584ZM87.7656 55.6562C83.0434 55.6562 79.2031 59.4965 79.2031 64.2188V72.7812C79.2031 77.5035 83.0434 81.3438 87.7656 81.3438H89.9062C92.475 81.3438 94.7569 80.1818 96.3281 78.3837C97.8993 80.1818 100.181 81.3438 102.75 81.3438C103.934 81.3438 104.891 80.3869 104.891 79.2031C104.891 78.0194 103.934 77.0625 102.75 77.0625C100.389 77.0625 98.4688 75.1424 98.4688 72.7812V64.2188V57.9892C98.4688 56.8054 97.5119 55.8486 96.3281 55.8486C95.5104 55.8486 94.8231 56.324 94.4634 56.9983C93.1405 56.1613 91.5845 55.6562 89.9062 55.6562H87.7656ZM27.8281 59.9375C26.6444 59.9375 25.6875 60.8965 25.6875 62.0781C25.6875 63.2598 26.6444 64.2188 27.8281 64.2188H32.1094C33.2931 64.2188 34.25 63.2598 34.25 62.0781C34.25 60.8965 33.2931 59.9375 32.1094 59.9375H27.8281ZM87.7656 59.9375H89.9062C92.2674 59.9375 94.1875 61.8576 94.1875 64.2188V72.7812C94.1875 75.1424 92.2674 77.0625 89.9062 77.0625H87.7656C85.4045 77.0625 83.4844 75.1424 83.4844 72.7812V64.2188C83.4844 61.8576 85.4045 59.9375 87.7656 59.9375ZM27.8281 70.6406C26.6444 70.6406 25.6875 71.5996 25.6875 72.7812C25.6875 73.9629 26.6444 74.9219 27.8281 74.9219H32.1094C33.2931 74.9219 34.25 73.9629 34.25 72.7812C34.25 71.5996 33.2931 70.6406 32.1094 70.6406H27.8281ZM27.8281 81.3438C26.6444 81.3438 25.6875 82.3027 25.6875 83.4844C25.6875 84.666 26.6444 85.625 27.8281 85.625H32.1094C33.2931 85.625 34.25 84.666 34.25 83.4844C34.25 82.3027 33.2931 81.3438 32.1094 81.3438H27.8281ZM27.8281 92.0469C26.6444 92.0469 25.6875 93.0059 25.6875 94.1875C25.6875 95.3691 26.6444 96.3281 27.8281 96.3281H32.1094C33.2931 96.3281 34.25 95.3691 34.25 94.1875C34.25 93.0059 33.2931 92.0469 32.1094 92.0469H27.8281ZM27.8281 102.75C26.6444 102.75 25.6875 103.709 25.6875 104.891C25.6875 106.072 26.6444 107.031 27.8281 107.031H32.1094C33.2931 107.031 34.25 106.072 34.25 104.891C34.25 103.709 33.2931 102.75 32.1094 102.75H27.8281ZM25.6875 115.594H107.031V122.016C107.031 123.195 106.072 124.156 104.891 124.156H25.6875C23.3264 124.156 21.4062 122.236 21.4062 119.875C21.4062 117.21 24.3796 115.594 25.6875 115.594Z" fill="#707EFF"/>
<rect x="47" y="32" width="59" height="60" fill="white"/>
<path d="M72.448 70.6H54.592L50.896 79H45.952L61.168 45.4H65.92L81.184 79H76.144L72.448 70.6ZM70.768 66.76L63.52 50.296L56.272 66.76H70.768ZM94.7883 53.32C98.3083 53.32 100.996 54.184 102.852 55.912C104.74 57.64 105.684 60.216 105.684 63.64V79H101.316V75.64C100.548 76.824 99.4443 77.736 98.0043 78.376C96.5963 78.984 94.9163 79.288 92.9643 79.288C90.1163 79.288 87.8283 78.6 86.1003 77.224C84.4043 75.848 83.5563 74.04 83.5563 71.8C83.5563 69.56 84.3723 67.768 86.0043 66.424C87.6363 65.048 90.2283 64.36 93.7803 64.36H101.076V63.448C101.076 61.464 100.5 59.944 99.3483 58.888C98.1963 57.832 96.5003 57.304 94.2603 57.304C92.7563 57.304 91.2843 57.56 89.8443 58.072C88.4043 58.552 87.1883 59.208 86.1963 60.04L84.2763 56.584C85.5883 55.528 87.1563 54.728 88.9803 54.184C90.8043 53.608 92.7403 53.32 94.7883 53.32ZM93.7323 75.736C95.4923 75.736 97.0123 75.352 98.2923 74.584C99.5723 73.784 100.5 72.664 101.076 71.224V67.672H93.9723C90.0683 67.672 88.1163 68.984 88.1163 71.608C88.1163 72.888 88.6123 73.896 89.6043 74.632C90.5963 75.368 91.9723 75.736 93.7323 75.736Z" fill="#6B6B6B"/>
</svg>
