<svg width="153" height="153" viewBox="0 0 153 153" fill="none" xmlns="http://www.w3.org/2000/svg">
<g clip-path="url(#clip0)">
<path d="M119.03 153H97.6831C95.7497 153 94.1821 151.432 94.1821 149.499C94.1821 147.566 95.7497 145.998 97.6831 145.998H104.856V139.405H72.2899C70.3565 139.405 68.7889 137.837 68.7889 135.904V90.6758C68.7889 88.7424 70.3565 87.1748 72.2899 87.1748H144.422C146.356 87.1748 147.923 88.7424 147.923 90.6758V135.904C147.923 137.837 146.356 139.405 144.422 139.405H111.857V145.998H119.029C120.963 145.998 122.53 147.566 122.53 149.499C122.53 151.432 120.963 153 119.03 153ZM108.412 132.402H140.921V94.1763H75.7904V132.402H108.3C108.337 132.401 108.375 132.401 108.412 132.402ZM108.356 127.546C106.422 127.546 104.855 125.979 104.855 124.045V122.798C104.855 120.864 106.422 119.297 108.356 119.297C110.289 119.297 111.857 120.864 111.857 122.798V124.045C111.857 125.979 110.289 127.546 108.356 127.546ZM57.7194 125.57H8.57663C6.64323 125.57 5.07568 124.003 5.07568 122.069C5.07568 120.136 6.64323 118.568 8.57663 118.568H57.7194C59.6528 118.568 61.2203 120.136 61.2203 122.069C61.2203 124.003 59.6532 125.57 57.7194 125.57ZM117.668 122.169C117.074 122.169 116.472 122.018 115.92 121.699L114.839 121.074C113.165 120.107 112.592 117.966 113.56 116.292C114.527 114.617 116.668 114.044 118.343 115.012L119.423 115.636C121.097 116.603 121.67 118.745 120.703 120.419C120.054 121.542 118.877 122.169 117.668 122.169ZM99.0441 122.169C97.8341 122.169 96.6569 121.541 96.0088 120.417C95.0425 118.743 95.6162 116.602 97.291 115.635L98.3719 115.011C100.045 114.044 102.187 114.618 103.154 116.293C104.12 117.967 103.547 120.109 101.872 121.075L100.791 121.699C100.24 122.018 99.6379 122.169 99.0441 122.169ZM100.118 112.036C99.525 112.036 98.9237 111.885 98.3723 111.567L97.2914 110.944C95.6166 109.978 95.0421 107.837 96.0079 106.162C96.9741 104.487 99.115 103.912 100.79 104.878L101.871 105.502C103.545 106.468 104.12 108.609 103.154 110.284C102.506 111.408 101.329 112.036 100.118 112.036ZM116.594 112.036C115.384 112.036 114.207 111.408 113.559 110.285C112.592 108.611 113.166 106.469 114.84 105.503L115.92 104.879C117.596 103.912 119.736 104.486 120.703 106.16C121.67 107.834 121.096 109.976 119.422 110.942L118.341 111.566C117.79 111.884 117.188 112.036 116.594 112.036ZM14.9181 111.723C14.4801 111.723 14.0342 111.64 13.6031 111.465C11.8115 110.738 10.9485 108.696 11.6754 106.904L22.7878 79.5165C26.235 71.0228 29.8781 65.0042 34.2526 60.576C40.0646 54.6926 47.2498 51.709 55.6079 51.709H70.3477C83.6215 51.709 93.5957 59.0719 100.841 74.2187C101.675 75.9631 100.938 78.0536 99.1933 78.8877C97.4494 79.7226 95.3585 78.9848 94.5244 77.24C90.0852 67.9599 84.9506 62.4035 78.4336 60.0443L65.8057 77.3486C65.1466 78.2514 64.0955 78.7857 62.9778 78.7857C61.8601 78.7857 60.809 78.2514 60.1499 77.3486L47.5194 60.0403C39.9871 62.7658 34.2906 69.7935 29.276 82.1492L18.164 109.537C17.6117 110.898 16.301 111.723 14.9181 111.723ZM55.2188 58.7135L62.9778 69.3458L70.7368 58.7135C70.6077 58.7117 70.4781 58.7109 70.3482 58.7109H55.6079C55.4779 58.7113 55.3479 58.7122 55.2188 58.7135ZM108.356 107.282C106.422 107.282 104.855 105.714 104.855 103.781V102.533C104.855 100.599 106.422 99.0317 108.356 99.0317C110.289 99.0317 111.857 100.599 111.857 102.533V103.781C111.857 105.714 110.289 107.282 108.356 107.282ZM62.9774 43.2747C51.047 43.2747 41.3406 33.5679 41.3406 21.6376C41.3406 11.807 47.9316 3.48609 56.9255 0.861254C56.9654 0.848563 57.0061 0.835872 57.0468 0.824494C58.2279 0.487966 59.437 0.25384 60.6602 0.122992C60.6663 0.122555 60.6715 0.122117 60.6777 0.121242C61.2951 0.0560369 61.9201 0.0162136 62.5515 0.00396032C62.559 0.00439794 62.5809 0.00308509 62.5971 0.00308509C62.6032 0.00264747 62.6111 0.00264747 62.6181 0.00264747C62.6264 0.00264747 62.6334 0.00220985 62.6408 0.00220985C62.6491 0.00220985 62.657 0.00177224 62.6653 0.00177224C62.6723 0.00220985 62.6789 0.00220985 62.685 0.00177224C62.6907 0.00133462 62.696 0.00177224 62.7012 0.00133462C62.7117 0.00133462 62.7187 -0.000853473 62.7336 0.000896999C62.7397 0.000896999 62.7454 0.00133462 62.752 0.000896999C62.7686 0.000459381 62.7852 0.000459381 62.8023 0.000459381C62.8084 0.000459381 62.8154 0.000896999 62.8216 2.17633e-05C62.8395 2.17633e-05 62.8588 -0.000415855 62.875 2.17633e-05C62.882 2.17633e-05 62.8885 -0.000415855 62.8951 -0.000415855C62.9047 -0.000415855 62.9152 -0.000853473 62.9262 -0.000415855C62.9336 -0.000415855 62.9406 -0.000415855 62.948 -0.000415855C62.959 2.17633e-05 62.966 2.17633e-05 62.9752 -0.000415855H62.9774C62.983 -0.000415855 62.9874 -0.000415855 62.9935 -0.000415855C62.9997 -0.000415855 63.0045 -0.000853473 63.0106 -0.000415855C63.0167 -0.000415855 63.0211 2.17633e-05 63.0277 -0.000415855C63.0329 -0.000415855 63.0391 -0.000415855 63.0447 -0.000415855C63.05 -0.000853473 63.0566 -0.000415855 63.0627 -0.000415855C63.0684 -0.000853473 63.0758 2.17633e-05 63.0815 2.17633e-05H63.0833C74.2119 0.0529735 83.4132 8.41235 84.5086 19.4863C84.5099 19.4968 84.5108 19.5082 84.5117 19.5191C84.5795 20.2158 84.6145 20.9221 84.6145 21.6367C84.6145 33.5679 74.9081 43.2747 62.9774 43.2747ZM55.4635 9.08235C51.2011 11.6433 48.343 16.3127 48.343 21.6372C48.343 29.7068 54.9081 36.2724 62.9778 36.2724C70.2506 36.2724 76.3015 30.9401 77.4257 23.9793C76.9689 24.0077 76.5107 24.0226 76.0512 24.0226C66.4608 24.0231 58.2843 17.8531 55.4635 9.08235ZM62.1599 7.02467C64.0985 12.8992 69.602 17.0212 76.0508 17.0212C76.3208 17.0212 76.5903 17.0137 76.859 16.9993C74.9269 11.2315 69.4939 7.05399 63.0964 7.00235C63.0894 7.00235 63.0824 7.00235 63.0758 7.00235C63.0688 7.00235 63.0614 7.00235 63.0548 7.00235C63.0478 7.00191 63.0408 7.00235 63.0338 7.00191C63.0268 7.00191 63.0181 7.00191 63.0119 7.00191C63.0023 7.00235 62.994 7.00235 62.9844 7.00191C62.9743 7.00191 62.9651 7.00191 62.9546 7.00191H62.952C62.6868 7.00235 62.4225 7.01022 62.1599 7.02467Z" fill="#707EFF"/>
</g>
<defs>
<clipPath id="clip0">
<rect width="153" height="153" fill="white"/>
</clipPath>
</defs>
</svg>
