<svg width="640" height="433" viewBox="0 0 640 433" fill="none" xmlns="http://www.w3.org/2000/svg">
<path fill-rule="evenodd" clip-rule="evenodd" d="M543.426 11.6612C439.986 -44.7815 359.333 120.898 300.753 141.755C182.693 183.79 -36.5929 220.349 5.22715 302.07C62.6491 414.279 262.445 425.475 405.323 414.279C591.163 399.716 746.798 122.633 543.426 11.6612Z" fill="#707EFF"/>
<path fill-rule="evenodd" clip-rule="evenodd" d="M158.793 124.308C155.305 109.532 164.807 85.0045 181.785 75.1425C198.762 65.2805 220.478 64.6049 239.386 70.4615C238.783 53.0486 257.307 38.1064 275.52 39.5451C293.734 40.9837 308.845 56.5722 311.292 73.8377C313.199 87.2906 305.955 103.315 291.946 105.752C296.898 122.618 299.651 140.364 296.934 157.686C294.216 175.008 285.569 191.929 270.976 202.57C266.947 207.736 269.99 215.53 275.294 219.514C280.598 223.499 287.462 224.899 293.809 227.098C320.403 236.312 339.126 261.324 343.49 287.976C347.855 314.627 339.138 342.267 323.384 364.674C312.593 380.022 297.914 393.651 279.549 399.554C253.771 407.838 225.508 399.772 200.477 389.617C190.935 385.746 181.218 381.347 174.483 373.831C167.262 365.773 153.615 370.125 143.774 375.053C150.318 377.642 156.861 380.23 163.405 382.818C164.811 383.374 166.337 384.035 166.989 385.346C168.361 388.107 164.98 390.764 162.118 392.138C159.042 393.614 155.967 395.09 152.891 396.567C134.013 405.63 114.352 414.889 93.2228 415.449C70.1227 416.06 48.3022 406.218 27.5125 396.598C25.2017 395.529 22.7522 394.339 21.4957 392.203C20.2393 390.067 20.9416 386.737 23.4248 386.111C46.7473 380.231 68.8281 369.911 87.9878 355.936C86.5221 347.237 86.8676 338.264 88.9982 329.69C89.3063 328.45 89.7496 327.091 90.9087 326.456C93.7586 324.895 96.2341 329.006 96.7376 332.103C98.0086 339.918 99.2797 347.734 100.551 355.549C115.813 353.94 130.626 348.595 143.181 340.168C133.388 332.65 123.596 325.132 113.803 317.613C108.153 313.276 102.699 310.681 99.6477 302.187C97.6133 296.524 99.2552 290.707 104.573 284.736C98.6366 256.531 96.0389 235.269 96.7804 220.951C96.9783 217.129 97.427 213.004 100.125 210.171C104.889 205.171 114.241 207.327 118.589 212.66C122.937 217.993 123.664 225.15 124.226 231.883C140.781 229.955 157.335 228.027 173.889 226.099C179.945 225.394 186.217 224.705 192.046 226.423C199.36 228.579 205.234 234.685 206.855 241.817C213.84 240.017 221.449 237.801 225.394 232.018C229.338 226.235 225.997 216.177 218.768 216.475C196.154 217.408 174.038 201.411 168.891 180.398C167.582 175.054 167.074 169.115 163.138 165.11C156.902 158.763 152.15 150.581 152.181 141.884C152.211 133.188 156.033 132.15 158.793 124.308ZM23.8071 391.937C24.3162 392.662 25.2049 393.041 26.0465 393.385C34.682 396.908 43.3175 400.431 51.9529 403.954C55.8822 405.557 59.8242 407.165 63.9333 408.286C75.393 411.411 87.7416 410.649 99.1357 413.986C100.518 414.391 102.001 413.973 103.377 413.55C113.315 410.499 123.136 407.101 132.813 403.367C142.938 399.461 152.972 395.151 161.961 389.236C162.779 388.698 163.628 388.1 164.001 387.222C164.374 386.344 164.03 385.123 163.074 384.864C157.007 383.221 151.029 381.284 145.169 379.061C143.285 378.347 141.164 377.328 140.764 375.433C135.602 375.631 131.087 378.735 127.28 382.064C123.472 385.393 119.895 389.152 115.203 391.215C110.511 393.277 104.213 393.099 100.963 389.27C100.616 388.861 100.267 388.391 99.7331 388.258C99.1993 388.125 98.5137 388.632 98.7624 389.101C99.4068 390.317 98.0227 391.855 96.5962 391.771C95.1696 391.686 94.0543 390.447 93.7031 389.127C93.352 387.806 91.4459 390.165 88.6835 390.558C85.9211 390.951 82.9905 389.261 82.0729 386.746C81.3167 384.673 78.3518 384.637 76.0863 384.249C70.935 383.367 67.0232 378.221 67.7477 373.28C52.9432 377.987 38.4072 383.461 24.2251 389.67C23.3931 390.034 23.2979 391.211 23.8071 391.937Z" fill="white"/>
<path d="M231.647 188.639C235.995 188.639 239.519 185.279 239.519 181.135C239.519 176.991 235.995 173.632 231.647 173.632C227.3 173.632 223.776 176.991 223.776 181.135C223.776 185.279 227.3 188.639 231.647 188.639Z" fill="white"/>
<path d="M177.013 182.459C179.314 182.459 181.18 180.681 181.18 178.487C181.18 176.293 179.314 174.514 177.013 174.514C174.711 174.514 172.846 176.293 172.846 178.487C172.846 180.681 174.711 182.459 177.013 182.459Z" fill="white"/>
<path fill-rule="evenodd" clip-rule="evenodd" d="M269.236 211.25C269.957 214.817 272.1 218.272 274.952 220.415C280.256 224.399 292.178 228.502 298.525 230.701C299.103 230.901 295.846 232.654 291.642 236.531C280.261 247.027 255.377 265.822 231.066 256.377C228.225 255.273 225.849 254.002 223.914 252.655C222.13 251.414 238.498 253.201 253.799 250.436C269.184 247.656 283.498 240.309 279.666 234.485C276.065 229.011 265.937 219.738 265.147 214.284C264.094 207.018 268.616 208.185 269.236 211.25Z" fill="#E7EAEE"/>
<path fill-rule="evenodd" clip-rule="evenodd" d="M23.4951 389.872C23.4951 386.962 33.1228 384.606 49.5814 378.704C60.9014 374.645 82.966 362.899 93.822 362.352C101.046 361.988 129.914 372.063 148.754 379.299C158.227 382.938 165.534 385.217 165.534 386.384C165.534 388.728 145.42 400.047 124.863 407.486C114.829 411.118 105.414 414.37 96.7808 414.15C70.459 413.481 23.4951 397.241 23.4951 389.872Z" fill="white"/>
<path fill-rule="evenodd" clip-rule="evenodd" d="M395.349 148.113C357.604 163.482 326.072 189.742 296.029 216.447L294.191 218.082C292.439 219.644 289.778 221.277 287.887 219.87L293.725 214.804C324.271 188.347 355.852 162.113 393.645 146.527C422.702 134.544 422.394 137.102 395.349 148.113ZM232.765 404.105L250.472 422.491C251.339 423.392 252.243 424.358 252.486 425.56C252.729 426.761 251.998 428.227 250.722 428.354L214.266 431.989C208.211 432.592 202.036 428.59 200.292 423.029C198.549 417.468 201.339 410.954 206.613 408.054C211.887 405.154 219.121 406.069 223.499 410.102C224.583 411.101 226.488 410.253 227.257 409.016C228.027 407.78 228.194 406.264 228.989 405.042C229.785 403.821 231.745 403.046 232.765 404.105ZM203.367 414.717C201.106 418.807 202.536 424.347 206.405 427.134C208.301 428.5 210.629 429.232 212.975 429.593C216.289 430.102 220.133 429.716 222.264 427.244C223.041 426.341 223.518 425.234 223.843 424.108C224.926 420.36 224.375 416.208 222.348 412.834C221.797 411.915 220.948 410.957 219.839 411.002C219.312 411.024 218.822 411.278 218.297 411.33C217.424 411.415 216.615 410.94 215.819 410.587C211.423 408.635 205.627 410.627 203.367 414.717ZM231.192 407.793C230.496 410.56 229.056 413.153 227.047 415.258C226.481 415.85 226.62 416.766 226.734 417.56C227.293 421.426 226.369 425.471 224.176 428.767C227.77 427.955 231.446 427.47 235.136 427.321C240.194 427.115 245.472 427.502 250.108 425.563C247.632 424.535 245.529 422.707 244.228 420.45C243.463 419.123 242.405 417.974 241.356 416.837L233.294 408.104C232.711 407.473 231.398 406.975 231.192 407.793ZM139.637 407.627C140.793 411.068 145.141 412.248 148.908 412.867L174.047 416.869C179.86 417.794 185.826 418.719 191.607 417.626C192.697 417.42 193.274 419.071 192.555 419.879C191.835 420.687 190.583 420.783 189.471 420.787C184.435 420.803 179.428 420.164 174.443 419.45L169.134 418.679C159.738 417.302 150.346 415.836 141.148 413.554C139.574 413.164 137.943 412.717 136.738 411.676C135.533 410.634 134.906 408.814 135.754 407.491C136.602 406.168 139.141 406.15 139.637 407.627ZM275.52 39.5451C293.734 40.9837 308.845 56.5722 311.292 73.8377C313.199 87.2906 305.955 103.315 291.946 105.752C296.898 122.618 299.652 140.364 296.934 157.686C294.216 175.008 285.569 191.929 270.976 202.57C266.947 207.736 269.99 215.529 275.294 219.514C280.598 223.499 287.462 224.899 293.809 227.098C320.403 236.312 339.126 261.324 343.49 287.976C347.855 314.627 339.138 342.267 323.384 364.674C312.593 380.021 297.914 393.651 279.549 399.554C254.029 407.755 226.073 399.932 201.229 389.921L200.477 389.617C191.134 385.827 181.623 381.53 174.908 374.296L174.483 373.831C167.262 365.773 153.615 370.125 143.774 375.053L163.405 382.818C164.811 383.374 166.337 384.035 166.989 385.346C168.361 388.107 164.98 390.763 162.118 392.137L150.591 397.669C132.416 406.366 113.495 414.911 93.2228 415.448C70.3913 416.053 48.8098 406.445 28.2381 396.934L26.9327 396.328C24.8017 395.324 22.6475 394.161 21.4957 392.203C20.2393 390.067 20.9416 386.736 23.4248 386.11C46.7473 380.231 68.8281 369.911 87.9878 355.936C86.5221 347.237 86.8676 338.264 88.9982 329.69L89.1067 329.273C89.4137 328.157 89.8784 327.02 90.9087 326.456C93.7586 324.895 96.2341 329.006 96.7376 332.103L100.551 355.549C115.813 353.94 130.626 348.595 143.181 340.168L113.014 317.006C107.612 312.84 102.144 308.336 99.6477 302.186C97.0296 295.737 99.1358 286.994 105.902 284.498C106.435 260.065 105.085 235.596 101.863 211.352C97.4092 235.566 100.989 260.391 104.573 284.736C98.4271 264.453 95.7656 243.215 96.7235 222.123L96.7804 220.951C96.9783 217.129 97.427 213.004 100.125 210.171C104.889 205.171 114.241 207.327 118.589 212.66C122.937 217.993 123.664 225.15 124.226 231.883L175.027 225.968C180.728 225.317 186.581 224.812 192.046 226.423C199.36 228.579 205.234 234.685 206.855 241.817L208.046 241.507C214.69 239.755 221.672 237.473 225.394 232.018C229.296 226.296 226.067 216.39 218.997 216.469L218.768 216.475C196.154 217.408 174.038 201.411 168.891 180.398C167.582 175.054 167.074 169.115 163.138 165.11C156.902 158.763 152.15 150.58 152.181 141.884C152.211 133.188 158.028 124.22 166.886 122.141C175.743 120.062 186.227 127.107 185.462 135.773C189.76 135.356 194.155 135.889 198.206 137.319C195.896 131.381 201.884 124.827 208.465 123.965C215.047 123.104 221.46 126.237 226.932 129.827C232.405 133.416 237.635 137.642 243.998 139.461L244.291 138.814C245.606 135.887 246.817 132.761 246.155 129.667C245.443 126.343 241.515 123.469 238.335 124.991C236.103 118.894 232.551 113.239 227.967 108.484L215.226 114.21C213.585 111.866 212.579 109.121 212.333 106.313C203.921 110.896 194.791 114.278 185.34 116.312L186.307 109.434L158.065 123.418C153.895 104.887 164.807 85.0045 181.785 75.1425C198.762 65.2805 220.478 64.6049 239.386 70.4614C238.783 53.0486 257.307 38.1064 275.52 39.5451ZM414.462 341.58C398.191 345.323 382.397 350.943 367.533 358.278L366.458 358.814C358.221 362.95 350.137 367.907 344.974 375.262C348.461 374.686 352.183 375.552 354.998 377.595C356.777 378.885 358.263 380.82 358.157 382.948C358.102 384.051 357.621 385.104 356.973 386.019C354.44 389.596 349.078 391.049 344.951 389.276C340.824 387.503 338.413 382.711 339.547 378.533C322.037 384.232 306.984 396.493 298.331 412.081L298.042 412.608C297.615 413.392 297.094 414.271 296.19 414.466C294.947 414.734 293.84 413.411 293.897 412.197C293.954 410.983 294.77 409.937 295.558 408.982C305.762 396.631 317.686 384.874 332.946 378.912L334.096 378.472C337.696 377.11 341.464 375.774 343.789 372.871C349.427 365.829 357.544 360.995 365.787 356.904C373.164 353.243 380.795 350.046 388.614 347.343C396.459 344.63 404.482 342.417 412.521 340.272L439.756 333.044C432.39 337.979 423.214 339.567 414.462 341.58ZM67.7477 373.28C52.9432 377.987 38.4072 383.461 24.2251 389.669C23.3931 390.034 23.2979 391.211 23.8071 391.936C24.3162 392.662 25.2049 393.041 26.0465 393.385L51.9529 403.954C55.8822 405.557 59.8242 407.165 63.9333 408.286C75.393 411.411 87.7416 410.649 99.1357 413.986C100.518 414.391 102.001 413.973 103.377 413.55C113.315 410.499 123.136 407.101 132.813 403.367C142.938 399.46 152.972 395.151 161.961 389.236C162.779 388.698 163.628 388.1 164.001 387.222C164.374 386.344 164.03 385.123 163.074 384.864C157.007 383.221 151.029 381.284 145.169 379.061L144.762 378.903C142.991 378.197 141.135 377.193 140.764 375.433C135.602 375.631 131.087 378.735 127.28 382.064C123.472 385.393 119.895 389.152 115.203 391.214C110.511 393.277 104.213 393.098 100.963 389.27L100.753 389.02C100.469 388.686 100.16 388.364 99.7331 388.258C99.1993 388.124 98.5137 388.631 98.7624 389.101C99.4068 390.317 98.0227 391.855 96.5962 391.771C95.1696 391.686 94.0543 390.447 93.7031 389.126C93.4774 388.277 93.4972 387.4 93.6052 386.524L93.6323 386.309C92.998 388.45 91.0098 390.227 88.6835 390.558C85.9212 390.951 82.9905 389.261 82.0729 386.746C81.3167 384.673 78.3518 384.637 76.0863 384.249C70.935 383.367 67.0232 378.221 67.7477 373.28ZM102.734 290.803C99.6824 295.978 102.517 302.527 106.276 307.26C118.063 322.102 137.805 329.225 151.276 342.703C154.66 346.089 157.611 349.841 160.523 353.608L169.678 365.46C171.36 367.639 173.049 369.824 175.012 371.777C180.132 376.87 186.872 380.156 193.54 383.214C207.068 389.42 220.984 395.122 235.672 398.084C250.36 401.046 265.966 401.147 280.097 396.317C293.324 391.796 304.721 383.124 313.576 372.724C322.22 362.57 328.565 350.801 333.651 338.651L334.021 337.762C334.752 335.99 335.471 334.136 335.319 332.237C335.159 330.229 334.036 328.403 332.727 326.824C327.732 320.8 319.385 317.393 311.392 318.335C303.524 319.261 296.319 324.466 293.437 331.5L293.303 331.836C287.039 348.023 271.441 360.198 253.919 364.518C236.397 368.838 217.339 365.742 201.345 357.666C185.352 349.591 172.301 336.807 162.571 322.259L162.04 321.456C160.282 318.766 158.684 315.936 158.065 312.833C157.384 309.42 158.076 305.581 160.662 303.132C162.37 301.514 164.801 300.565 166.043 298.599C167.286 296.633 165.827 293.161 163.535 293.863L162.006 294.325C151.471 297.449 139.25 299.873 130.775 293.371L129.96 292.75C126.006 289.754 121.781 286.895 116.868 285.865C111.617 284.764 105.369 286.335 102.734 290.803ZM144.726 343.261C131.949 350.957 117.529 356.164 102.609 358.468C100.639 358.772 100.11 361.206 100.079 363.108C99.9803 369.154 100.287 375.205 100.998 381.213C102.614 380.488 103.275 378.675 104.377 377.335C105.478 375.995 107.993 375.261 108.844 376.757C109.439 377.803 108.645 379.113 107.631 379.806C106.618 380.499 105.371 380.875 104.467 381.694C102.217 383.734 103.393 387.745 106.134 389.135C108.874 390.524 112.341 389.799 114.968 388.223C117.595 386.647 119.625 384.336 121.853 382.276C126.618 377.868 132.446 374.512 138.755 372.542C146.765 370.04 155.684 369.669 162.73 365.26C163.205 364.963 163.696 364.615 163.875 364.101C164.12 363.4 163.706 362.672 163.267 362.048L154.836 350.377C153.493 348.518 151.947 346.522 149.646 345.99C148.594 345.746 147.473 345.84 146.44 345.53C145.408 345.219 144.435 344.255 144.726 343.261ZM85.864 360.214C82.5769 361.677 80.6315 365.117 80.1986 368.551C79.7657 371.984 80.6158 375.441 81.6256 378.763C82.2454 380.802 82.9328 382.835 83.9579 384.72C84.6116 385.921 85.4771 387.12 86.7871 387.642C88.097 388.165 89.9149 387.695 90.3406 386.404C90.516 385.872 90.4374 385.297 90.3359 384.747C89.9544 382.684 89.2699 380.671 88.3094 378.786L87.9061 378.022C87.3282 376.92 86.784 375.62 87.527 374.658C88.2364 373.739 89.98 373.359 89.8133 372.23L88.1854 361.198C88.1379 360.876 88.082 360.535 87.8624 360.286C87.3999 359.761 86.5153 359.924 85.864 360.214ZM346.476 377.229C345.391 377.225 344.249 377.368 343.377 377.984C342.867 378.345 342.482 378.85 342.211 379.398C341.066 381.713 342.122 384.689 344.293 386.197C346.463 387.704 349.47 387.845 351.983 386.942C353.904 386.251 355.753 384.687 355.689 382.73C355.638 381.186 354.409 379.898 353.053 379.052C351.116 377.843 348.791 377.239 346.476 377.229ZM92.0316 328.952C91.7538 329.148 91.6164 329.474 91.499 329.784C89.7897 334.305 89.5805 339.206 89.6276 344.012C89.7459 356.061 91.3697 368.096 94.4538 379.782L94.6071 380.351C95.2376 382.632 96.0994 384.973 98.0518 386.384C98.4149 367.866 97.1546 349.319 94.2882 331C94.1021 329.811 93.0437 328.234 92.0316 328.952ZM76.6385 368.755C76.2304 368.864 75.9684 369.235 75.7647 369.589C74.0978 372.489 73.9853 376.153 75.4713 379.14C76.1376 380.48 77.2801 381.782 78.8255 381.946C79.4556 381.198 79.1676 380.121 78.8146 379.205L78.5098 378.429C77.3754 375.498 76.4443 372.325 77.4442 369.379C77.5747 368.994 77.0465 368.646 76.6385 368.755ZM71.0777 372.772C69.9088 375.249 70.4296 378.367 72.348 380.376C73.1399 379.604 72.7916 378.34 72.5211 377.291C72.0979 375.651 72.0024 373.934 72.241 372.26C71.9462 371.847 71.2925 372.317 71.0777 372.772ZM95.7163 284.471C97.4882 285.926 98.6148 289.066 96.5105 290.039C95.1622 290.662 93.6345 289.751 92.3614 288.998C85.746 285.085 77.2875 284.797 69.7876 286.787C62.2876 288.778 55.5825 292.833 49.2895 297.202C43.0227 301.553 36.9801 306.328 32.2678 312.197C27.5556 318.066 24.2225 325.138 23.949 332.525C23.6213 341.375 27.6323 349.837 32.2704 357.51C35.2266 362.401 38.56 367.223 43.1489 370.774L44.0923 371.485C45.394 372.481 46.7306 373.717 46.3987 375.215C41.9007 375.022 38.6361 371.185 36.1591 367.601C32.6368 362.504 29.4261 357.212 26.5486 351.759C24.156 347.226 21.969 342.502 21.2421 337.474C19.875 328.019 23.9019 318.404 30.161 310.954C36.42 303.504 44.7498 297.914 53.1748 292.757C59.5743 288.839 66.1604 285.082 73.3442 282.702C80.7527 280.248 89.7737 279.592 95.7163 284.471ZM285.841 242.826C275.188 252.305 261.027 258.129 246.483 259.011C240.055 259.401 233.418 258.815 227.602 256.177C221.786 253.539 216.887 248.62 215.535 242.617L215.053 242.759C210.843 244.029 206.023 246.326 206.066 250.462C206.246 268.002 205.817 285.548 204.782 303.061C204.583 306.422 203.241 310.834 199.712 310.735C187.173 310.384 174.552 313.144 163.427 318.67C175.949 337.39 193.756 353.757 215.907 360.614C238.058 367.471 264.773 363.186 280.295 346.634C285.271 341.328 288.933 335.056 292.459 328.772L293.271 327.323C294.021 325.982 294.784 324.389 294.117 323.01C293.692 322.129 294.609 321.214 295.452 320.67C307.839 312.678 326.281 314.846 336.259 325.468C335.469 323.994 336.187 321.962 337.753 321.245C338.998 323.151 339.261 325.611 338.446 327.718C338.986 328.445 339.975 327.275 340.06 326.388C341.391 312.581 341.286 298.649 339.749 284.861C339.195 279.89 338.442 274.887 336.576 270.215C334.939 266.118 332.48 262.362 329.786 258.809C323.587 250.635 316.05 243.384 307.533 237.4L306.914 236.971C305.564 236.049 304.142 235.2 302.547 234.785C296.23 233.146 290.626 238.567 285.841 242.826ZM199.781 234.883C192.739 237.142 185.113 236.708 177.7 237.196C167.254 237.884 156.949 240.474 147.504 244.785C143.437 246.641 139.501 248.823 135.2 250.115C126.064 252.857 115.591 251.164 107.914 245.702C106.26 257.746 106.748 270.054 109.352 281.945C109.519 282.708 110.046 283.685 110.829 283.456C116.02 281.936 121.604 284.086 126.22 286.814C130.836 289.542 135.175 292.943 140.418 294.293C146.568 295.877 153.086 294.413 159.174 292.574L159.63 292.435C162.751 291.48 166.787 290.683 168.788 293.158C170.476 295.245 169.41 298.362 167.623 300.373C165.836 302.384 163.413 303.879 161.955 306.118C160.165 308.867 160.156 312.581 161.932 315.338C173.559 310.893 186.004 308.399 198.524 308.006C201.035 307.927 201.916 304.829 202.07 302.439C203.422 281.492 203.837 260.491 203.314 239.511C203.258 237.275 202.005 234.17 199.781 234.883ZM388.026 291.524L388.523 291.762C391.607 293.256 394.888 295.246 395.347 298.465C395.499 299.525 395.308 300.602 395.044 301.642C394.678 303.081 394.121 304.558 392.947 305.528C391.703 306.557 389.954 306.849 388.308 306.788C385.067 306.668 381.824 305.229 379.947 302.707C378.069 300.186 377.767 296.579 379.519 293.977C381.27 291.375 385.12 290.151 388.026 291.524ZM383.219 295.125C381.297 295.889 380.606 298.366 381.408 300.197C382.209 302.028 384.113 303.233 386.092 303.851C388.115 304.482 390.721 304.431 391.927 302.758C392.328 302.201 392.518 301.53 392.629 300.863C392.87 299.41 392.724 297.802 391.742 296.667C390.526 295.261 388.451 294.979 386.512 294.874L386.031 294.851C385.081 294.811 384.096 294.776 383.219 295.125ZM140.701 257.265C140.944 258.145 140.757 259.073 140.591 259.968C139.422 266.273 139.338 272.76 140.34 279.092L140.525 280.212C140.647 281.005 140.697 281.842 140.219 282.48C139.668 283.216 138.124 283.142 138.046 282.24C137.389 274.569 136.967 266.879 136.783 259.184C136.747 257.714 137.15 255.759 138.687 255.646C139.638 255.577 140.458 256.386 140.701 257.265ZM86.5877 241.892C87.7249 242.219 88.8173 242.961 89.1468 244.049C89.4764 245.136 88.7263 246.511 87.5411 246.582C86.4365 246.648 85.5935 245.689 84.5786 245.269C82.7565 244.513 80.7122 245.568 79.0371 246.587L78.1844 247.112C76.5762 248.121 75.0184 249.254 74.1353 250.864C73.2318 252.511 73.1562 254.447 73.1841 256.305C73.2036 257.597 73.267 258.907 73.686 260.136C74.595 262.802 77.1887 264.799 80.0657 265.377C82.9428 265.955 86.0198 265.206 88.4535 263.633L88.93 263.324C89.3597 263.054 89.8102 262.819 90.3157 262.796C91.0108 262.764 91.7717 263.389 91.5354 264.013C91.4646 264.2 91.3191 264.351 91.1735 264.494C87.1955 268.39 80.3263 269.223 75.451 266.403C74.5812 265.899 73.7705 265.292 73.1133 264.552C71.1377 262.326 70.7691 259.208 70.7147 256.293C70.6853 254.716 70.7262 253.115 71.1965 251.602C72.2126 248.334 75.0841 245.907 78.0686 244.03C80.6026 242.436 83.6805 241.059 86.5877 241.892ZM63.5722 235.187L73.4897 246.415C72.9441 246.978 71.9879 247.014 71.2508 246.709C70.5956 246.437 70.073 245.952 69.5805 245.453L63.7617 239.487C62.9684 245.542 61.0465 251.461 58.1129 256.885C57.8274 257.413 58.6363 257.859 59.2561 257.92C60.7696 258.068 62.3001 257.903 63.7925 257.621L64.5617 257.473C65.7669 257.245 67.0029 257.066 68.1264 257.49C69.4907 258.005 70.3326 259.898 69.2385 260.831C68.5642 261.405 67.5425 261.334 66.6448 261.228L56.9862 260.089L56.6894 260.049C55.7358 259.9 54.6878 259.544 54.548 258.667C54.4638 258.139 54.7715 257.635 55.0594 257.177C58.4973 251.707 60.7877 245.585 61.76 239.276L61.9065 238.276C62.0955 237.048 62.4299 235.716 63.5722 235.187ZM401.461 252.827C402.658 253.635 403.787 255.22 402.86 256.302C402.28 256.98 401.161 256.996 400.327 256.632C399.493 256.268 398.845 255.614 398.125 255.072C395.174 252.848 390.742 252.613 387.551 254.513C387.096 254.783 386.645 255.119 386.46 255.598C386.276 256.077 386.48 256.721 386.993 256.866C391.067 255.221 395.922 255.451 399.805 257.473C400.366 257.765 400.955 258.154 401.093 258.749C401.231 259.344 400.561 260.058 400.003 259.76C397.469 258.409 394.446 257.911 391.584 258.375C390.25 258.592 388.945 259.01 387.592 259.051C386.239 259.092 384.76 258.661 384.042 257.568C383.379 256.559 383.536 255.197 384.183 254.178C384.829 253.159 385.888 252.437 386.996 251.888C391.505 249.651 397.312 250.028 401.461 252.827ZM266.343 198.243C256.672 205.992 245.309 211.812 233.193 215.224L232.385 215.448C230.812 215.876 228.832 216.825 229.163 218.352L229.367 219.3C229.971 222.149 230.484 225.051 230.053 227.918C229.588 231.01 227.8 234.104 224.841 235.404L224.569 235.517C219.3 237.584 218.56 245.087 222.015 249.406C225.47 253.725 231.461 255.397 237.121 256.021C253.732 257.852 271.066 252.543 283.45 241.831C287.941 237.946 291.96 233.295 297.521 230.987L283.615 226.134C279.863 224.825 276.063 223.492 272.798 221.298C269.532 219.104 266.809 215.91 266.142 212.155C265.324 207.556 267.637 202.741 266.343 198.243ZM105.931 210.678C105.582 210.826 105.225 211.022 105.058 211.349C104.89 211.676 104.946 212.063 105.006 212.423L108.192 231.57C109.131 237.212 110.45 243.465 115.331 246.778C120.678 250.408 128.021 248.986 134.248 246.914L134.58 246.802C146.171 242.878 157.325 237.415 169.473 235.577C178.195 234.257 187.341 234.822 195.588 231.812C192.572 227.472 186.036 227.494 180.569 228.064L135.906 232.903C132.446 233.278 128.811 233.715 126.001 235.676C124.772 236.534 123.608 237.713 122.085 237.773C120.604 237.831 119.316 235.774 120.477 235.018L120.58 234.958C121.853 234.29 121.767 232.548 121.507 231.185L120.156 224.124C119.473 220.622 118.639 217.057 116.441 214.198C114.067 211.11 109.601 209.123 105.931 210.678ZM414.272 239.295C415.348 240.49 415.394 242.325 414.677 243.744C413.959 245.163 412.6 246.207 411.129 246.926C409.355 247.794 407.401 248.247 405.443 248.633L404.464 248.823C404.081 248.896 403.676 248.968 403.305 248.851C402.996 248.753 402.746 248.532 402.544 248.29C401.534 247.082 401.57 245.301 402.253 243.901C402.936 242.501 404.159 241.412 405.416 240.438C406.7 239.442 408.098 238.504 409.709 238.14C411.319 237.776 413.193 238.097 414.272 239.295ZM408.991 241.396L408.475 241.726C407.705 242.229 406.961 242.779 406.443 243.513C405.81 244.41 405.59 245.662 406.215 246.565L410.358 244.367C411.033 244.009 411.732 243.631 412.17 243.024C412.608 242.418 412.695 241.513 412.153 240.988C411.341 240.2 409.956 240.784 408.991 241.396ZM342.907 198.173C343.196 198.285 343.391 198.534 343.56 198.789L349.63 208.24C350.714 209.929 353.182 210.117 355.254 209.978C359.225 209.711 363.158 208.938 366.917 207.687C367.547 207.477 368.145 208.241 368.009 208.865C367.873 209.488 367.311 209.932 366.784 210.323L357.669 217.097C356.549 217.021 356.867 215.274 357.775 214.646L358.044 214.467C358.919 213.904 359.98 213.348 359.925 212.382L354.657 213.951C353.651 214.25 352.533 214.545 351.576 214.124C350.94 213.844 350.495 213.295 350.092 212.742L343.399 203.429L343.284 211.584C343.274 212.253 343.244 212.978 342.799 213.495C342.483 213.862 342.01 214.059 341.538 214.225L332.303 217.384C334.769 219.735 339.385 217.261 342.337 219.033C344.358 220.247 344.704 222.951 344.267 225.191C343.831 227.43 342.831 229.609 342.961 231.883C344.646 230.718 345.884 228.977 346.395 227.053C346.602 226.278 346.703 225.453 347.156 224.779C348.403 222.922 351.383 223.3 353.449 224.293C355.514 225.286 357.657 226.716 359.916 226.244L356.638 221.247C356.339 220.791 356.029 220.298 356.055 219.761C356.082 219.223 356.617 218.68 357.157 218.837C357.393 218.905 357.57 219.083 357.726 219.27L365.039 228.307C362.471 229.922 359.082 228.905 356.116 228.126L355.676 228.016C352.783 227.333 349.252 227.266 347.654 229.603C346.528 231.25 345.207 232.776 343.723 234.142C343.098 234.718 342.386 235.291 341.522 235.385C340.659 235.479 339.667 234.855 339.744 234.03L340.594 224.892C340.649 224.3 340.691 223.656 340.345 223.162C339.981 222.642 339.294 222.439 338.661 222.273L330.672 220.169C328.935 219.712 328.922 217.134 330.225 215.947C331.528 214.761 333.447 214.512 335.184 214.053C336.92 213.594 338.798 212.619 339.111 210.927L341.139 199.979C341.312 199.042 341.983 197.816 342.907 198.173ZM127.95 43.8098L126.475 44.9528C116.643 52.5904 106.956 60.5974 99.7455 70.5257C92.1747 80.9504 87.5269 93.8773 89.7808 106.373C93.0653 124.583 110.151 139.085 110.881 157.549C110.979 160.001 113.598 161.528 115.79 162.815C124.44 167.897 130.85 175.963 135.08 184.77C139.177 193.302 141.365 202.547 142.956 211.812L143.108 212.709C143.345 214.122 143.518 215.73 142.562 216.833C141.606 217.936 139.147 217.55 139.243 216.122C140.365 199.334 133.965 182.208 121.962 169.877C118.844 166.674 115.221 163.705 110.83 162.451C110.551 168.917 108.267 175.506 103.433 180.05C98.598 184.593 90.9714 186.669 84.7128 184.162C78.4542 181.655 74.6254 174.084 77.4421 168.196C79.8017 163.263 85.6617 160.771 91.2409 159.721C96.7152 158.691 102.39 158.637 107.885 159.563C108.624 159.688 108.946 158.703 108.931 157.987C108.534 138.795 89.9251 123.77 87.4823 104.716C86.1474 94.303 89.8742 83.8208 95.2828 74.6849C102.385 62.6873 112.49 52.3173 124.518 44.6811L124.832 44.4863C125.796 43.9082 126.919 43.4151 127.95 43.8098ZM189.222 141.558C186.529 143.209 186.598 146.874 186.376 149.919C186.07 154.095 184.564 158.276 181.626 161.388C178.688 164.5 174.225 166.412 169.867 165.89C168.74 165.755 168.397 167.31 168.545 168.384C171.078 186.791 182.791 204.862 200.996 211.453C212.126 215.483 224.698 214.947 236.045 211.513C247.122 208.16 257.148 202.197 266.311 195.372L266.979 194.871C268.308 193.87 269.644 192.828 270.567 191.475C271.504 190.103 271.965 188.48 272.189 186.857C273.391 178.163 267.297 169.065 258.516 166.448C257.483 166.14 257.722 164.542 258.629 163.978C259.536 163.414 260.703 163.452 261.739 163.151C264.543 162.334 265.834 159.288 266.474 156.56C267.354 152.81 267.601 148.535 265.163 145.475C261.87 141.341 255.465 141.346 250.035 141.742L241.224 142.385C238.183 142.607 234.268 143.629 234.125 146.533C233.818 152.789 230.927 159.02 225.821 162.959C220.714 166.898 213.359 168.26 207.297 165.849C201.33 163.476 197.115 157.284 197.804 151.171L197.842 150.875C198.201 148.289 198.003 145.481 196.414 143.358C194.825 141.234 191.523 140.147 189.222 141.558ZM261.999 43.8059C258.07 44.8707 254.296 46.5881 251.194 49.1219C246.859 52.6629 243.977 57.7798 243.276 63.1806C243.028 65.0943 243.427 67.5623 245.376 68.0764C250.139 69.3323 254.4 72.2446 257.177 76.1411C252.674 73.5871 247.739 71.7287 242.621 70.6603L264.253 82.3294C265.507 83.0058 266.809 83.7241 267.597 84.8736C268.386 86.0231 268.468 87.7387 267.385 88.6441L265.873 87.5222C262.083 84.7259 258.208 82.0153 253.967 79.8991C250.741 78.2899 247.337 77.0415 243.914 75.8521L242.046 75.2075C235.71 73.0282 229.316 70.8351 222.642 69.9644C216.448 69.1562 210.088 69.515 204.037 71.0142L202.843 71.3057C194.669 73.2777 186.146 74.8901 179.387 79.6548C175.367 82.489 172.219 86.2832 169.23 90.1042L168.525 91.0162C162.585 98.7897 157.158 108.374 160.633 117.293C176.587 115.419 189.016 103.652 203.468 96.944C204.572 96.4313 206.394 96.2745 206.562 97.4347L190.39 106.545C190.839 108.898 190.415 111.393 189.209 113.49C201.025 110.307 212.071 104.56 221.275 96.8131L221.86 96.316C223.32 95.063 226.133 94.0264 226.755 95.8026L225.963 96.2239C223.061 97.7802 220.174 99.4825 218.174 102.003C215.991 104.752 215.122 108.748 217.057 111.661L237.472 100.202C238.301 99.7366 239.206 99.2543 240.163 99.3502C241.12 99.446 242.017 100.429 241.604 101.257L240.91 101.395C238.706 101.841 236.471 102.401 234.756 103.769C232.859 105.281 231.877 108.117 233.286 110.054C235.814 113.528 237.865 117.317 239.371 121.293C239.404 119.554 241.89 118.665 243.53 119.428C245.169 120.192 246.036 121.915 246.63 123.56C248.329 128.264 248.778 133.373 247.924 138.282C253.057 140.01 259.079 137.968 264.017 140.154C268.6 142.183 270.843 147.446 270.524 152.254C270.205 157.062 267.822 161.508 265.277 165.67C272.39 170.923 276.19 179.972 274.844 188.453C276.084 188.26 277.132 187.24 277.308 186.054L280.129 187.751C275.716 190.128 272.578 194.54 271.892 199.327C291.277 182.034 297.713 154.626 294.916 129.458L294.807 128.519C293.699 119.431 291.061 109.957 283.891 103.937C287.735 101.824 292.665 102.655 296.778 101.068C300.665 99.5695 303.335 96.095 305.139 92.4874C311.17 80.4265 309.093 65.0811 300.049 54.8747C291.004 44.6682 275.48 40.1523 261.999 43.8059ZM198.628 195.063C199.239 195.159 199.933 195.356 200.173 195.901C200.555 196.771 199.483 197.567 198.556 197.896C197.21 198.374 195.796 198.681 194.365 198.804C193.164 198.908 191.65 198.687 191.278 197.593C191.034 196.874 191.458 196.067 192.1 195.623C192.742 195.18 193.554 195.03 194.342 194.949C195.767 194.801 197.213 194.84 198.628 195.063ZM176.699 182.591C180.918 187.317 187.518 189.82 194.027 189.869C200.537 189.918 206.924 187.674 212.328 184.214L212.783 183.923C213.469 183.489 214.181 183.08 214.986 182.947C215.97 182.783 217.14 183.177 217.475 184.074C211.822 188.651 204.736 191.674 197.35 192.312C189.964 192.951 182.314 191.145 176.287 187.024C175.2 186.281 174.076 185.303 174.031 184.028C173.986 182.753 175.832 181.619 176.699 182.591ZM88.2733 162.571C85.3398 163.463 82.3875 164.77 80.5368 167.117C77.7876 170.601 78.2684 175.889 81.2377 179.206C84.207 182.523 89.228 183.847 93.7076 182.965C98.1871 182.084 102.076 179.203 104.594 175.562C107.111 171.921 108.343 167.575 108.717 163.229C108.779 162.5 108.64 161.536 107.887 161.402C101.381 160.248 94.5775 160.654 88.2733 162.571ZM192.222 145.59C192.345 146.592 191.938 147.575 191.564 148.52C189.451 153.854 188.165 159.485 187.761 165.174C187.695 166.096 187.658 167.051 188.012 167.911C188.347 168.723 189.124 169.429 190.025 169.478L190.185 169.479C191.005 169.452 191.394 170.617 190.879 171.225C190.363 171.834 189.395 171.902 188.608 171.679C186.993 171.22 185.836 169.787 185.367 168.244C184.898 166.702 185.018 165.054 185.253 163.463C186.048 158.07 188.114 152.841 188.215 147.396C188.244 145.86 188.573 143.788 190.18 143.666C191.235 143.586 192.1 144.587 192.222 145.59ZM212.297 127.388C208.942 128.046 206.38 130.67 204.641 133.483C201.076 139.245 200.061 146.389 201.888 152.848C202.708 155.748 204.111 158.551 206.311 160.7C208.512 162.85 211.569 164.293 214.719 164.243C216.918 164.208 219.052 163.464 220.963 162.426C227.341 158.956 231.394 151.925 231.045 144.932C230.696 137.939 225.963 131.306 219.268 128.429C217.088 127.492 214.639 126.929 212.297 127.388ZM165.994 124.521C160 126.638 156.13 132.573 155.305 138.616C154.481 144.659 156.259 150.772 158.793 156.367C159.476 157.873 160.251 159.405 161.562 160.47C162.872 161.534 164.857 162.011 166.346 161.187C167.039 160.804 167.686 161.7 168.212 162.277C169.26 163.425 171.104 163.523 172.67 163.225C177.828 162.242 181.792 157.945 183.397 153.169C184.948 148.553 184.617 143.556 183.701 138.779L183.604 138.285C182.637 133.467 180.453 128.053 175.533 126.618C172.953 125.866 169.841 126.306 167.847 124.574C167.365 124.155 166.605 124.306 165.994 124.521ZM261.254 144.949C263.281 147.09 262.451 150.416 261.437 153.164L261.355 153.386C260.949 154.464 260.528 155.567 259.752 156.441C258.977 157.315 257.758 157.925 256.582 157.692C255.406 157.458 254.49 156.158 254.984 155.115C255.597 153.819 257.681 153.753 258.432 152.526L256.401 152.343C255.032 152.22 253.559 152.055 252.545 151.17C251.531 150.285 251.404 148.412 252.637 147.832C253.491 147.43 254.52 147.824 255.311 148.331C256.102 148.837 256.858 149.479 257.8 149.617C258.742 149.755 259.887 149.05 259.693 148.16C259.422 146.923 260.089 145.552 261.254 144.949ZM214.876 153.31C215.037 154.161 215.096 155.064 214.762 155.869C214.427 156.673 213.612 157.346 212.706 157.31C211.301 157.254 210.549 155.712 210.304 154.393C210.001 152.763 210.474 150.52 212.206 150.398C213.688 150.294 214.613 151.915 214.876 153.31ZM171.61 149.849C172.309 150.821 172.211 152.12 171.933 153.268C171.577 154.737 170.683 156.377 169.109 156.53C167.688 156.669 166.475 155.457 166.01 154.169C165.443 152.598 165.719 150.678 167.006 149.557C168.292 148.436 170.624 148.479 171.61 149.849ZM172.92 133.265C173.548 133.541 173.991 134.295 173.673 134.88L173.065 135.032C169.607 135.912 165.92 137.136 164.269 140.117C163.873 140.831 163.616 141.62 163.123 142.277C162.63 142.934 161.799 143.456 160.97 143.29C160.025 143.1 159.478 142.063 159.579 141.148C159.68 140.232 160.264 139.434 160.89 138.733C163.436 135.881 167.023 133.892 170.882 133.192C171.561 133.069 172.292 132.99 172.92 133.265ZM217.118 134.912C218.152 135.706 218.937 136.765 219.982 137.546C220.865 138.206 221.981 138.728 222.382 139.727C222.783 140.726 221.576 142.137 220.701 141.468C218.415 139.721 215.877 138.275 213.182 137.181C211.96 136.685 212.237 134.725 213.429 134.167C214.621 133.609 216.083 134.117 217.118 134.912ZM204.309 128.647C202.056 129.355 200.455 131.616 200.608 133.873C201.47 133.452 202.126 132.667 202.364 131.772L202.33 131.681C203.33 130.928 204.043 129.835 204.309 128.647Z" fill="#00160A"/>
<path fill-rule="evenodd" clip-rule="evenodd" d="M77.3443 399.152C78.2508 399.16 79.0846 399.56 79.8765 400L80.3046 400.243C85.1591 403.013 90.2817 405.357 95.586 407.234C96.3149 407.492 96.0885 408.659 95.378 408.96C94.6675 409.261 93.8475 408.992 93.1229 408.724L77.4579 402.913C76.4554 402.541 75.2918 401.974 75.2039 400.952C75.1163 399.935 76.273 399.143 77.3443 399.152Z" fill="#E7EAEE"/>
<path fill-rule="evenodd" clip-rule="evenodd" d="M52.3715 382.881L100.831 399.269L101.136 399.377C102.417 399.855 103.802 400.671 103.665 401.932C103.554 402.959 102.361 403.622 101.278 403.587C100.362 403.558 99.5157 403.17 98.7061 402.742L98.2679 402.507C91.511 398.854 84.4219 395.84 77.1513 393.236C68.9153 390.286 60.4464 387.862 51.964 385.631C50.6669 385.29 49.023 384.185 49.7669 383.116C50.2886 382.366 51.482 382.58 52.3715 382.881Z" fill="#E7EAEE"/>
</svg>
