<svg width="119" height="119" viewBox="0 0 119 119" fill="none" xmlns="http://www.w3.org/2000/svg">
<g clip-path="url(#clip0)">
<path d="M105.4 55.6096H13.5014C7.0816 55.6096 1.85938 60.8318 1.85938 67.2516V107.359C1.85938 113.778 7.0816 119 13.5014 119H105.4C111.819 119 117.042 113.778 117.042 107.359V67.2516C117.042 60.8318 111.819 55.6096 105.4 55.6096ZM110.069 107.359C110.069 109.933 107.974 112.027 105.4 112.027H13.5014C10.9266 112.027 8.83203 109.933 8.83203 107.359V67.2516C8.83203 64.6768 10.9266 62.5823 13.5014 62.5823H105.4C107.974 62.5823 110.069 64.6768 110.069 67.2516V107.359Z" fill="#707EFF"/>
<path d="M59.4599 37.3364C62.2299 37.3364 64.9999 36.2841 67.1089 34.1787C69.1544 32.1377 70.2802 29.4231 70.2802 26.5351C70.2802 23.6471 69.1544 20.9325 67.1089 18.8915C62.8909 14.6816 56.0281 14.6816 51.81 18.8915C49.7645 20.9325 48.6387 23.6471 48.6387 26.5351C48.6387 29.4231 49.7645 32.1377 51.81 34.1787C53.919 36.2841 56.689 37.3364 59.4599 37.3364ZM56.7353 23.8259C57.487 23.076 58.473 22.702 59.4599 22.702C60.4459 22.702 61.4319 23.0769 62.1827 23.8259C62.9081 24.5495 63.3076 25.5119 63.3076 26.5351C63.3076 27.5583 62.9081 28.5198 62.1836 29.2443C60.681 30.7432 58.2379 30.7423 56.7353 29.2443C56.0099 28.5198 55.6113 27.5583 55.6113 26.5351C55.6113 25.5119 56.0108 24.5504 56.7353 23.8259Z" fill="#707EFF"/>
<path d="M72.199 41.7806C72.8799 42.4633 73.7733 42.8047 74.6667 42.8047C75.5582 42.8047 76.4489 42.4651 77.1298 41.786C81.2108 37.7123 83.4587 32.2967 83.4587 26.5351C83.4587 20.7736 81.2108 15.3571 77.1298 11.2843C75.767 9.92425 73.559 9.92606 72.199 11.2888C70.839 12.6516 70.8417 14.8596 72.2044 16.2196C74.9654 18.9751 76.4861 22.6385 76.4861 26.5351C76.4861 30.4309 74.9654 34.0952 72.2044 36.8507C70.8417 38.2107 70.839 40.4178 72.199 41.7806Z" fill="#6B6B6B"/>
<path d="M41.7713 41.786C42.4523 42.4651 43.3429 42.8047 44.2345 42.8047C45.1278 42.8047 46.0212 42.4633 46.7021 41.7806C48.0622 40.4178 48.0594 38.2107 46.6967 36.8507C43.9358 34.0943 42.415 30.4309 42.415 26.5342C42.415 22.6385 43.9358 18.9751 46.6967 16.2187C48.0594 14.8587 48.0622 12.6516 46.7021 11.2888C45.3421 9.92516 43.1341 9.92334 41.7713 11.2834C37.6903 15.3571 35.4433 20.7727 35.4424 26.5342C35.4424 32.2958 37.6903 37.7123 41.7713 41.786Z" fill="#6B6B6B"/>
<path d="M32.1653 98.0765H22.8066V73.0467C22.8066 71.121 21.246 69.5604 19.3203 69.5604C17.3947 69.5604 15.834 71.121 15.834 73.0467V101.563C15.834 103.489 17.3947 105.049 19.3203 105.049H32.1653C34.09 105.049 35.6516 103.489 35.6516 101.563C35.6516 99.6381 34.09 98.0765 32.1653 98.0765Z" fill="#6B6B6B"/>
<path d="M42.9663 69.5604C41.0407 69.5604 39.48 71.121 39.48 73.0467V101.563C39.48 103.489 41.0407 105.049 42.9663 105.049C44.8911 105.049 46.4526 103.489 46.4526 101.563V73.0467C46.4526 71.121 44.8911 69.5604 42.9663 69.5604Z" fill="#6B6B6B"/>
<path d="M73.4554 69.7092C71.6133 69.1527 69.6667 70.1959 69.1102 72.0389L63.8389 89.5005L58.5668 72.0389C58.0102 70.195 56.0646 69.1527 54.2216 69.7092C52.3785 70.2658 51.3354 72.2114 51.8919 74.0544L60.5015 102.571C60.5024 102.573 60.5033 102.576 60.5042 102.579C61.453 105.615 66.1268 105.799 67.1737 102.579C67.1746 102.576 67.1755 102.574 67.1764 102.571L75.786 74.0544C76.3425 72.2105 75.2984 70.2658 73.4554 69.7092Z" fill="#6B6B6B"/>
<path d="M99.581 76.533C101.507 76.533 103.067 74.9723 103.067 73.0467C103.067 71.121 101.507 69.5604 99.581 69.5604H83.8535C81.9279 69.5604 80.3672 71.121 80.3672 73.0467V101.563C80.3672 103.489 81.9279 105.049 83.8535 105.049H99.1116C101.037 105.049 102.598 103.489 102.598 101.563C102.598 99.6381 101.037 98.0765 99.1116 98.0765H87.3398V88.9957H97.2332C99.1589 88.9957 100.72 87.4351 100.72 85.5094C100.72 83.5838 99.1589 82.0231 97.2332 82.0231H87.3398V76.533H99.581Z" fill="#6B6B6B"/>
<path d="M88.6317 26.5351C88.6317 34.3086 85.5984 41.618 80.0902 47.1154C78.7274 48.4754 78.7247 50.6834 80.0847 52.0462C80.7666 52.728 81.659 53.0694 82.5524 53.0694C83.444 53.0694 84.3346 52.7298 85.0155 52.0507C91.8438 45.236 95.6043 36.1743 95.6043 26.5351C95.6043 16.8969 91.8438 7.83425 85.0155 1.01957C83.6528 -0.340461 81.4457 -0.338645 80.0847 1.02411C78.7247 2.38686 78.7274 4.59487 80.0902 5.9549C85.5984 11.4522 88.6317 18.7608 88.6317 26.5351Z" fill="#707EFF"/>
<path d="M36.3488 53.0694C37.2422 53.0694 38.1356 52.728 38.8165 52.0462C40.1765 50.6834 40.1747 48.4754 38.811 47.1154C33.3028 41.618 30.2695 34.3086 30.2695 26.5342C30.2695 18.7608 33.3028 11.4513 38.811 5.954C40.1738 4.59397 40.1765 2.38596 38.8165 1.02411C37.4555 -0.339552 35.2484 -0.341368 33.8857 1.01866C27.0574 7.83425 23.2969 16.896 23.2969 26.5342C23.2969 36.1734 27.0574 45.2351 33.8857 52.0507C34.5666 52.7298 35.4573 53.0694 36.3488 53.0694Z" fill="#707EFF"/>
</g>
<defs>
<clipPath id="clip0">
<rect width="119" height="119" fill="white"/>
</clipPath>
</defs>
</svg>
