<svg width="70" height="43" viewBox="0 0 70 43" fill="none" xmlns="http://www.w3.org/2000/svg">
<path d="M30.9704 0H4.36947C1.95628 0 0 1.92518 0 4.3C0 6.67482 1.95628 8.6 4.36947 8.6H30.9704C33.3836 8.6 35.3399 6.67482 35.3399 4.3C35.3399 1.92518 33.3836 0 30.9704 0Z" fill="#7785FF"/>
<path d="M36.6075 17.4H4.35462C1.94963 17.4 0 19.3699 0 21.8C0 24.2301 1.94963 26.2 4.35462 26.2H36.6075C39.0125 26.2 40.9621 24.2301 40.9621 21.8C40.9621 19.3699 39.0125 17.4 36.6075 17.4Z" fill="#7785FF"/>
<path d="M47.4967 34.4H4.50913C2.1297 34.4 0.200795 36.3252 0.200795 38.7C0.200795 41.0748 2.1297 43 4.50913 43H47.4967C49.8761 43 51.805 41.0748 51.805 38.7C51.805 36.3252 49.8761 34.4 47.4967 34.4Z" fill="#7785FF"/>
<path d="M52.1518 34.9898L36.0784 2.92497C34.7704 0.315439 31.6033 -0.735152 29.0046 0.578405C26.406 1.89196 25.3597 5.07225 26.6678 7.68178L42.7411 39.7466C44.0492 42.3561 47.2163 43.4067 49.815 42.0932C52.4136 40.7796 53.4599 37.5993 52.1518 34.9898Z" fill="#7785FF"/>
<path d="M52.1366 40.1637L69.3483 8.70028C70.749 6.1397 69.8174 2.92368 67.2675 1.51709C64.7175 0.110505 61.5149 1.046 60.1142 3.60658L42.9025 35.07C41.5018 37.6306 42.4334 40.8466 44.9833 42.2532C47.5332 43.6598 50.7359 42.7243 52.1366 40.1637Z" fill="#7785FF"/>
</svg>
