<svg width="141" height="141" viewBox="0 0 141 141" fill="none" xmlns="http://www.w3.org/2000/svg">
<path d="M36.1525 16.638H31.3021V10.5186C31.3021 8.93938 29.9062 7.67038 28.1719 7.67038C26.4517 7.67038 25.0417 8.95348 25.0417 10.5186V16.638H20.1772V10.5186C20.1772 6.50008 23.7586 3.22888 28.1578 3.22888C32.557 3.22888 36.1384 6.50008 36.1384 10.5186V16.638H36.1525Z" fill="#707EFF"/>
<path d="M131.525 137.771H9.48946C5.03386 137.771 1.41016 134.472 1.41016 130.397V21.7986C1.41016 17.7378 5.03386 14.4243 9.48946 14.4243H25.0559V24.6891C25.0559 26.2683 26.4518 27.5514 28.1861 27.5514C29.9063 27.5514 31.3163 26.2683 31.3163 24.6891V14.4243H109.698V24.6891C109.698 26.2683 111.094 27.5514 112.828 27.5514C114.549 27.5514 115.959 26.2683 115.959 24.6891V14.4243H131.525C135.981 14.4243 139.59 17.7378 139.59 21.7986V130.411C139.59 134.472 135.966 137.771 131.525 137.771ZM9.48946 18.8517C7.71286 18.8517 6.27466 20.163 6.27466 21.7845V130.397C6.27466 132.018 7.71286 133.33 9.48946 133.33H131.525C133.302 133.33 134.74 132.018 134.74 130.397V21.7986C134.74 20.1771 133.302 18.8658 131.525 18.8658H120.823V24.7032C120.823 28.7217 117.242 32.007 112.842 32.007C108.443 32.007 104.862 28.7358 104.862 24.7032V18.8658H36.1526V24.7032C36.1526 28.7217 32.5712 32.007 28.172 32.007C23.7728 32.007 20.1914 28.7358 20.1914 24.7032V18.8658H9.48946V18.8517Z" fill="#707EFF"/>
<path d="M112.829 31.9929C108.43 31.9929 104.848 28.7217 104.848 24.6891V16.638H109.699V24.6891C109.699 26.2683 111.094 27.5514 112.829 27.5514C114.549 27.5514 115.959 26.2683 115.959 24.6891V16.638H120.809V24.6891C120.809 28.7076 117.228 31.9929 112.829 31.9929Z" fill="#6B6B6B"/>
<path d="M3.83545 43.1037H137.151V47.5452H3.83545V43.1037Z" fill="#707EFF"/>
<path d="M120.809 16.638H115.959V10.5186C115.959 8.93938 114.563 7.67038 112.829 7.67038C111.109 7.67038 109.699 8.95348 109.699 10.5186V16.638H104.848V10.5186C104.848 6.50008 108.43 3.22888 112.829 3.22888C117.228 3.22888 120.809 6.50008 120.809 10.5186V16.638Z" fill="#6B6B6B"/>
<path d="M27.9806 31.764C23.5814 31.764 20 28.4928 20 24.4602V16.4091H24.8504V24.4602C24.8504 26.0394 26.2463 27.3225 27.9806 27.3225C29.7008 27.3225 31.1108 26.0394 31.1108 24.4602V16.4091H35.9612V24.4602C35.9612 28.4787 32.3798 31.764 27.9806 31.764Z" fill="#6B6B6B"/>
<path d="M35.9612 16.4091H31.1108V10.2897C31.1108 8.7105 29.7149 7.4415 27.9806 7.4415C26.2604 7.4415 24.8504 8.7246 24.8504 10.2897V16.4091H20V10.2897C20 6.2712 23.5814 3 27.9806 3C32.3798 3 35.9612 6.2712 35.9612 10.2897V16.4091Z" fill="#6B6B6B"/>
<path d="M52.96 62.2V107H46.624V67.768H36.512V62.2H52.96ZM81.0635 107.512C77.5222 107.512 74.3648 106.616 71.5915 104.824C68.8608 102.989 66.7062 100.344 65.1275 96.888C63.5488 93.432 62.7595 89.336 62.7595 84.6C62.7595 79.864 63.5488 75.768 65.1275 72.312C66.7062 68.856 68.8608 66.232 71.5915 64.44C74.3648 62.6053 77.5222 61.688 81.0635 61.688C84.5622 61.688 87.6768 62.6053 90.4075 64.44C93.1808 66.232 95.3568 68.856 96.9355 72.312C98.5142 75.768 99.3035 79.864 99.3035 84.6C99.3035 89.336 98.5142 93.432 96.9355 96.888C95.3568 100.344 93.1808 102.989 90.4075 104.824C87.6768 106.616 84.5622 107.512 81.0635 107.512ZM81.0635 101.816C84.6475 101.816 87.5062 100.344 89.6395 97.4C91.8155 94.456 92.9035 90.1893 92.9035 84.6C92.9035 79.0107 91.8155 74.744 89.6395 71.8C87.5062 68.856 84.6475 67.384 81.0635 67.384C77.4368 67.384 74.5355 68.856 72.3595 71.8C70.2262 74.744 69.1595 79.0107 69.1595 84.6C69.1595 90.1893 70.2262 94.456 72.3595 97.4C74.5355 100.344 77.4368 101.816 81.0635 101.816Z" fill="#6B6B6B"/>
</svg>
